<svg width="21" height="19" fill="none" xmlns="http://www.w3.org/2000/svg"><path d="M19.16 9.338c2.14-2.14 2.14-5.614 0-7.733a5.486 5.486 0 00-7.755 0l-1.038 1.06-1.038-1.039C7.189-.535 3.714-.535 1.595 1.605a5.43 5.43 0 00-1.59 3.877c0 1.462.573 2.84 1.59 3.877l8.772 8.772 8.793-8.793zM1.362 5.482A3.97 3.97 0 012.57 2.601 4.062 4.062 0 015.45 1.393c1.038 0 2.077.403 2.882 1.208l2.034 2.013L12.4 2.58c1.589-1.59 4.195-1.59 5.763 0a4.056 4.056 0 011.208 2.881 3.97 3.97 0 01-1.208 2.881l-7.797 7.818L2.57 8.364c-.763-.784-1.208-1.801-1.208-2.882z" fill="#000"/></svg>