<svg width="143" height="34" fill="none" xmlns="http://www.w3.org/2000/svg"><path d="M.876 6.818V33h3.759V14.041h.243l7.722 18.92h3.119l7.721-18.907h.243V33h3.759V6.818h-4.794L14.313 27.17h-.307L5.67 6.819H.876zM42.01 33.396c4.282 0 7.312-2.11 8.181-5.305l-3.618-.652c-.69 1.854-2.352 2.8-4.525 2.8-3.273 0-5.472-2.123-5.574-5.907h13.96v-1.355c0-7.095-4.244-9.869-8.693-9.869-5.472 0-9.077 4.168-9.077 10.202 0 6.098 3.554 10.086 9.345 10.086zM36.486 21.47c.153-2.787 2.173-5.203 5.28-5.203 2.965 0 4.908 2.199 4.921 5.203H36.487zM69.39 18.158c-.793-3.056-3.184-5.05-7.428-5.05-4.436 0-7.58 2.34-7.58 5.817 0 2.787 1.687 4.64 5.368 5.459l3.324.728c1.892.422 2.774 1.266 2.774 2.493 0 1.521-1.623 2.71-4.129 2.71-2.288 0-3.758-.984-4.219-2.914l-3.694.562c.639 3.477 3.528 5.433 7.939 5.433 4.743 0 8.028-2.518 8.028-6.072 0-2.774-1.764-4.487-5.37-5.318l-3.119-.716c-2.16-.512-3.093-1.24-3.08-2.57-.013-1.508 1.623-2.582 3.796-2.582 2.378 0 3.478 1.316 3.925 2.633l3.465-.613zM83.142 13.364h-4.027V8.659h-3.822v4.705h-2.877v3.068h2.877v11.595c-.013 3.567 2.71 5.293 5.727 5.229 1.214-.013 2.033-.243 2.48-.41l-.69-3.157c-.256.051-.729.166-1.343.166-1.24 0-2.352-.409-2.352-2.62V16.431h4.027v-3.068zM95.43 33.396c5.536 0 9.154-4.052 9.154-10.125 0-6.11-3.618-10.163-9.153-10.163-5.536 0-9.154 4.052-9.154 10.163 0 6.073 3.618 10.125 9.154 10.125zm.014-3.209c-3.618 0-5.306-3.157-5.306-6.928 0-3.759 1.688-6.955 5.306-6.955 3.592 0 5.279 3.196 5.279 6.955 0 3.77-1.687 6.928-5.28 6.928zM108.057 9h1.057V5.59h1.909c.076 0 .149 0 .221-.003L113.085 9h1.228l-1.973-3.605c1.112-.38 1.632-1.287 1.632-2.446 0-1.543-.921-2.676-2.966-2.676h-2.949V9zm1.057-4.364V1.21h1.858c1.414 0 1.96.69 1.96 1.739 0 1.048-.546 1.687-1.943 1.687h-1.875zM119.721 6.324c0 1.227-.937 1.79-1.687 1.79-.835 0-1.432-.614-1.432-1.569v-4.09h-1.006v4.159c0 1.67.887 2.471 2.114 2.471.989 0 1.636-.528 1.943-1.193h.068V9h1.006V2.455h-1.006v3.869zM127.205 3.92c-.315-.929-1.022-1.55-2.318-1.55-1.381 0-2.403.783-2.403 1.891 0 .904.537 1.509 1.738 1.79l1.091.256c.661.153.972.469.972.92 0 .563-.597 1.023-1.534 1.023-.823 0-1.338-.354-1.517-1.057l-.955.239c.235 1.112 1.151 1.704 2.489 1.704 1.521 0 2.557-.83 2.557-1.96 0-.912-.571-1.487-1.739-1.773l-.972-.238c-.775-.192-1.125-.452-1.125-.955 0-.562.597-.971 1.398-.971.878 0 1.24.485 1.415.937l.903-.256zM133.475 3.92c-.316-.929-1.023-1.55-2.318-1.55-1.381 0-2.404.783-2.404 1.891 0 .904.537 1.509 1.739 1.79l1.091.256c.66.153.971.469.971.92 0 .563-.596 1.023-1.534 1.023-.822 0-1.338-.354-1.517-1.057l-.954.239c.234 1.112 1.15 1.704 2.488 1.704 1.522 0 2.557-.83 2.557-1.96 0-.912-.571-1.487-1.738-1.773l-.972-.238c-.776-.192-1.125-.452-1.125-.955 0-.562.597-.971 1.398-.971.877 0 1.24.485 1.414.937l.904-.256zM135.108 9h1.006V2.455h-1.006V9zm.511-7.636c.392 0 .716-.307.716-.682 0-.375-.324-.682-.716-.682-.392 0-.716.307-.716.682 0 .375.324.682.716.682zM139.882 9.153c1.142 0 1.738-.613 1.943-1.04h.051V9h1.006V4.687c0-2.079-1.585-2.318-2.421-2.318-.988 0-2.113.341-2.625 1.534l.955.341c.221-.477.746-.988 1.704-.988.925 0 1.381.49 1.381 1.33v.033c0 .486-.494.444-1.687.597-1.215.158-2.54.426-2.54 1.926 0 1.278.988 2.011 2.233 2.011zm.153-.903c-.801 0-1.38-.358-1.38-1.057 0-.767.698-1.005 1.482-1.108.427-.05 1.569-.17 1.739-.375v.92c0 .819-.648 1.62-1.841 1.62z" fill="#fff"/></svg>